<svg xmlns="http://www.w3.org/2000/svg" width="350" height="51" viewBox="0 0 350 51">
    <g fill="none" fill-rule="nonzero">
        <path fill="#003143" d="M235.897 34.036h-9.115c-2.025.041-2.932.923-2.932 2.858v1.383c0 2.15 1.16 3.15 3.658 3.15 2.573 0 5.254-.978 7.977-2.91a.994.994 0 0 0 .412-.796v-3.685zm-2.797-21.53c4.968 0 8.69 1.037 11.06 3.082 2.4 2.068 3.626 4.89 3.626 9.884v23.349a.93.93 0 0 1-.93.93h-7.84a.93.93 0 0 1-.913-.748l-.813-4.061c-3.552 3.77-7.888 5.683-12.91 5.683-3.564 0-6.523-.962-8.796-2.86-2.307-1.921-3.476-4.625-3.476-8.032v-3.64c0-3.025 1.05-5.42 3.115-7.123 2.03-1.678 4.867-2.53 8.43-2.53h12.244v-1.042c-.044-1.645-.409-1.99-1.068-2.506-.48-.377-1.612-.828-4.276-.828-3.901 0-8.982.193-15.097.579l-.52.033-1.16-8.321.53-.095c6.451-1.165 12.774-1.755 18.794-1.755zm70.838 15.954c1.115 0 1.856-.24 2.206-.716.386-.53.582-1.35.582-2.435 0-1.503-.366-2.538-1.088-3.08-.768-.578-2.271-.87-4.465-.87-2.59 0-4.361.491-5.266 1.46-.86.922-1.385 2.819-1.565 5.641h9.596zm11.704 4.927c-1.82 1.77-4.755 2.67-8.72 2.67h-12.304c.355 2.1 1.041 2.842 2.046 3.57 1.132.824 3.088 1.24 5.819 1.24 3.787 0 8.27-.268 13.328-.798l.53-.055 1.161 7.63-.371.18c-3.795 1.823-9.14 2.749-15.884 2.749-6.866 0-11.848-1.525-14.805-4.534-2.953-3.003-4.454-7.291-4.454-14.109 0-7.154 1.462-12.255 4.348-15.163 2.883-2.91 7.752-4.386 14.474-4.386 6.066 0 10.537 1.08 13.291 3.209 2.798 2.164 4.24 5.478 4.293 9.858 0 3.495-.927 6.166-2.752 7.939zm-45.828-23.55c-.584.565-.882 1.656-.882 3.235v3.473h9.893v8.293h-9.893v24.096a.93.93 0 0 1-.93.93h-10.1a.93.93 0 0 1-.93-.93V24.838h-6.258v-8.293l6.258.003v-4.93C256.972 3.91 261.124 0 269.317 0c5.099 0 9.047.248 11.742.735l.53.098-1.164 8.143h-7.253c-1.633 0-2.765.29-3.358.86zm77.349 2.02h2.517l-1.214 11.089h-3.413c-2.134 0-5.413.705-9.754 2.099a.969.969 0 0 0-.67.9v22.989a.93.93 0 0 1-.93.93h-10.03a.93.93 0 0 1-.93-.93V13.435a.93.93 0 0 1 .93-.93h7.688a.93.93 0 0 1 .915.765l.72 4.36c4.735-3.83 9.498-5.773 14.17-5.773zM58.093.47c.437 0 .793.354.793.793v48.341a.794.794 0 0 1-.793.793h-10.62a.794.794 0 0 1-.793-.793V1.264c0-.439.355-.793.792-.793h10.62zm58.547 12.535c.439 0 .794.355.794.793V49.53a.793.793 0 0 1-.794.793h-10.62a.793.793 0 0 1-.793-.793v-26.02a.793.793 0 0 0-.793-.793h-7.062a.793.793 0 0 0-.794.792v26.021a.793.793 0 0 1-.793.793h-10.62a.793.793 0 0 1-.793-.793V23.598a.793.793 0 0 0-.793-.792h-7.063a.793.793 0 0 0-.792.792v25.933a.793.793 0 0 1-.794.793H64.31a.792.792 0 0 1-.793-.793v-29.34a7.185 7.185 0 0 1 7.186-7.185h45.937zm81.555 13.707c3.135 0 5.688.96 7.583 2.857 1.894 1.892 2.854 4.443 2.854 7.582v2.745c0 3.138-.96 5.689-2.854 7.583-1.895 1.894-4.446 2.855-7.583 2.855H174.8a.781.781 0 0 1-.782-.781v-7.982c0-.431.35-.781.782-.781h19.273c.654 0 1.186-.213 1.622-.649.428-.427.646-.971.646-1.62v-2.265h-11.885c-3.138 0-5.688-.96-7.582-2.855-1.895-1.892-2.856-4.442-2.856-7.583v-2.403c0-3.14.96-5.691 2.856-7.582 1.9-1.897 4.45-2.858 7.582-2.858h19.962c.431 0 .78.35.78.781v7.833a.78.78 0 0 1-.78.781h-15.84c-.645 0-1.192.218-1.623.65-.432.435-.645.772-.645 1.426 0 .646.218 1.192.645 1.62.428.427.975.646 1.623.646h9.617zM26.08 30.163c.521 0 .895-.515.762-1.019-2.618-9.903-4.096-15.522-4.435-16.858-.351-1.382-.603-2.473-.754-3.276-.607 2.766-2.308 9.479-5.106 20.138-.133.502.242 1.014.76 1.014h8.773zm4.112-29.107L43.24 49.325a.792.792 0 0 1-.766.999H32.367a.794.794 0 0 1-.765-.58l-2.958-10.656a.794.794 0 0 0-.764-.58H15.39a.791.791 0 0 0-.764.58l-2.96 10.655a.794.794 0 0 1-.765.581H.794a.792.792 0 0 1-.766-.998L13.016 1.058a.792.792 0 0 1 .766-.587h15.645c.357 0 .672.24.766.585z"/>
        <path fill="#19A4B6" d="M170.363 22.968v-.025c-.092.017-5.087 2.73-11.547 6.43V40.4a.428.428 0 0 1-.429.428h-19.53c-9.168 5.27-16.792 9.657-16.792 9.657h47.505a.792.792 0 0 0 .793-.8V22.967z"/>
        <path fill="#EE4550" d="M169.57 13.003H134.84l13.292 9.658h10.256c.237 0 .428.191.428.428v6.284c6.461-3.7 11.456-6.413 11.548-6.43v-9.146a.793.793 0 0 0-.793-.794"/>
        <path fill="#003143" d="M133.62 40.401V23.089c0-.237.192-.428.428-.428h14.083l-13.292-9.658h-11.981a.793.793 0 0 0-.793.794v36.69s7.624-4.388 16.792-9.658h-4.809a.427.427 0 0 1-.427-.428"/>
        <path fill="#EE4550" d="M142.338 9.166a.43.43 0 0 1 .43-.43h6.911a.43.43 0 0 1 .43.43v2.69h3.518V6.08a.792.792 0 0 0-.792-.792h-13.242a.792.792 0 0 0-.793.792v5.774h3.538V9.166z"/>
    </g>
</svg>
